<svg id="SMH_-_Mono" data-name="SMH - Mono" xmlns="http://www.w3.org/2000/svg" width="212.152" height="21.554" viewBox="0 0 212.152 21.554">
  <path id="Path_45" data-name="Path 45" d="M79.273,9.253l-.138-.138-.553.345c-.276-.207-1.105-.76-1.105-.76L75.543,9.943l.691.553v7.461c0,.691-.553,1.105-1.313,1.105h-.345V9.736L72.918,8.7l-2.072,1.382.138.207s.345-.276.484-.276a2.357,2.357,0,0,1,.76,1.382V19.2A2.369,2.369,0,0,0,70.5,21.687a1.915,1.915,0,0,0,1.8,1.8,18.914,18.914,0,0,0,2.418-.138,9.47,9.47,0,0,1,1.451-.138,1.9,1.9,0,0,1,1.451.553l.207.207h0a1.958,1.958,0,0,0,.414-1.105,1.674,1.674,0,0,0-.9-1.589A3.325,3.325,0,0,0,75.819,21a1.823,1.823,0,0,0-.484.069c-.276.069-.691.069-1.105.138a14.247,14.247,0,0,1-1.451.138,2.451,2.451,0,0,0-.484.069.673.673,0,0,1-.622-.276.746.746,0,0,1-.207-.484c.069-.691.9-.967,1.174-.967h.276a12.1,12.1,0,0,0,2.763.276,2.441,2.441,0,0,0,1.174-.276,3.189,3.189,0,0,0,1.036-.622,2.608,2.608,0,0,0,.691-.829,2.027,2.027,0,0,0,.276-1.105V9.667Z" transform="translate(-21.797 -2.69)"/>
  <path id="Path_46" data-name="Path 46" d="M102.914,18.233l-.345-.276V9.736l.553-.345-.138-.138-.553.345-1.313-.9-2.556,1.727-.069-.138a2.986,2.986,0,0,0-1.105-1.451h0L94.9,10.5l.069.138a1.988,1.988,0,0,0,.414-.276,2.824,2.824,0,0,1,.691,1.243v6.217l-.691.553,1.934,1.243,1.934-1.243-.691-.553V10.911l.622-.414.9,1.036v6.425a2.333,2.333,0,0,0,1.036,1.658l2.28-1.52-.138-.138Z" transform="translate(-29.341 -2.69)"/>
  <path id="Path_47" data-name="Path 47" d="M40.525,12.123,38.59,8.6l-4.007,2.625v6.7l-.484.345.138.138.484-.276c.76.553,2.349,1.451,2.349,1.451l2.28-1.451L39.212,18s-.622.345-.691.414c0,0-1.313-.967-1.382-.967V14.4Zm-3.316,1.8v-3.73L38.8,12.883Z" transform="translate(-10.543 -2.659)"/>
  <path id="Path_48" data-name="Path 48" d="M182.07,10.6,180.9,8.945s-1.727,1.174-2,1.313A3.9,3.9,0,0,0,177.649,8.6c-.276.207-2.349,1.52-2.349,1.52l.069.138a1.51,1.51,0,0,1,.345-.207l.138.138q.415.414.414.622v6.632l-.691.553,1.934,1.52s1.589-1.105,1.934-1.382h0l.484-.345-.138-.138-.484.345-.622-.553V10.811l.414-.276.967,1.243a.993.993,0,0,1-.138.207,1.792,1.792,0,0,0-.414.967c0,.138.207.553.484.553h.069c.207,0,.276-.069.415-.069h0c-.138,0-.207-.069-.345-.138h0a.492.492,0,0,1-.207-.414,1.672,1.672,0,0,1,.415-.9A15.337,15.337,0,0,1,182.07,10.6Z" transform="translate(-54.199 -2.659)"/>
  <path id="Path_49" data-name="Path 49" d="M303.73,8l-.138-.138-.553.345L296.753,2.2V5.378c.484.484,1.589,1.52,2.072,1.934a5.746,5.746,0,0,1-2.142,1.105,1.687,1.687,0,0,1,.069.484v6.977l-.553.345.138.138.553-.345,2.072,1.52a11.42,11.42,0,0,1,4.145-1.8V8.21Zm-4.49,7.115V8l.207-.138,1.243,1.174v7.046Z" transform="translate(-91.578 -0.68)"/>
  <path id="Path_50" data-name="Path 50" d="M60.735,8.061c.069-.138.207-.345.484-.829.829-1.313,1.589-2.694,3.247-2.694a1.377,1.377,0,0,1,1.243.691V5.3h.069a1.316,1.316,0,0,0,.345-.691,1.114,1.114,0,0,0-.207-.622,1.055,1.055,0,0,0-.691-.276h-.207A3.705,3.705,0,0,0,62.6,5.021a8.088,8.088,0,0,0-1.52,2,11.991,11.991,0,0,1-.691,1.036,12.051,12.051,0,0,1-1.8-.345,33.82,33.82,0,0,1,1.865-2.9c.622-.9,1.382-1.658,1.727-2.142.069-.069.138-.138.207-.138a.241.241,0,0,0,.138-.069s-.069-.138-.138-.138-.069,0-.138.069c-.069,0-.138.069-.207.069-.138,0-.276-.138-.553-.345a5.751,5.751,0,0,0-9.6,3.523,4.716,4.716,0,0,0,.9,3.178c.622.622,1.727,1.036,3.592,1.451h.138l-.276.345a2.341,2.341,0,0,1-1.8.829,1.323,1.323,0,0,1-1.036-.414h-.069c.069.069.207.345.345.553.207.276.414.414.553.414a1.343,1.343,0,0,0,.691-.069,3.745,3.745,0,0,0,1.589-1.174l.207-.207.207-.207,1.313.207c.138,0,.276.069.414.069l-.553.829c-.691,1.036-.967,1.382-.967,1.382s-.484-.069-.622-.069a10.455,10.455,0,0,0-1.8-.138,7.752,7.752,0,0,0-5.25,1.934,4.435,4.435,0,0,0-.691.9,3.347,3.347,0,0,0-.484,1.8,1.822,1.822,0,0,0,2.072,1.8c2.072,0,3.8-1.934,4.767-2.971l.138-.138a2.509,2.509,0,0,0,.484-.622,16.75,16.75,0,0,1,4.352,2,17.68,17.68,0,0,0,2.072-2.694c.484-.691,1.589-2.349,1.589-3.523C63.913,9.926,62.807,8.475,60.735,8.061ZM58.11,7.646A10.233,10.233,0,0,0,56.8,7.439c-.691-.138-4.145-1.174-4.145-2.694,0-1.8,2.211-1.8,3.316-1.8.207,0,2.763.207,3.938,1.865C59.906,4.814,58.455,7.094,58.11,7.646Zm-4.145,9.188c-.138.138-.276.207-.414.345a6.113,6.113,0,0,1-1.174.829,5.294,5.294,0,0,1-1.174.484c-.138,0-.207.069-.345.069s-.345.069-.484.069H50.1a1.254,1.254,0,0,1-1.313-1.243c0-1.865,3.178-2.487,4.283-2.487h.276a7.887,7.887,0,0,1,1.934.207l.207.069A8.855,8.855,0,0,1,53.965,16.834ZM61.7,14.9h0a15,15,0,0,0-4.145-1.934h-.069l1.52-2.28c1.934.414,3.247,1.451,3.247,2.556A2.811,2.811,0,0,1,61.7,14.9Z" transform="translate(-14.933 -0.186)"/>
  <path id="Path_51" data-name="Path 51" d="M14.784,12.984A7.535,7.535,0,0,1,11.813,15.4V6.076h0c1.658-.069,2.832-1.036,2.832-2.556a3.04,3.04,0,0,0-.138-.691,2.173,2.173,0,0,1-1.727.76,14.154,14.154,0,0,1-3.869-.76A16.143,16.143,0,0,0,4.559,2C2.487,2,0,3.036,0,5.8A4.69,4.69,0,0,0,2.349,9.53l.069.069A4.772,4.772,0,0,0,2,11.257c0,2.694,1.658,6.77,6.356,6.77a6.673,6.673,0,0,0,3.109-.76,7.543,7.543,0,0,0,2-1.658,7.06,7.06,0,0,0,1.313-2.625Zm-12.3-3.73-.069-.069A2.265,2.265,0,0,1,1.313,7.25c-.069-1.8,1.243-2.625,2.971-2.625a6.047,6.047,0,0,1,1.382.138A15.531,15.531,0,0,0,2.487,9.254Zm4.145,5.734a6.333,6.333,0,0,1-2.487-5.25,7.376,7.376,0,0,1,1.934-4.9c.138.069.76.207,1.105.345v8.566A2.562,2.562,0,0,1,6.7,15.126Zm.484.276a.994.994,0,0,1,.207-.138c1.589-1.036,2.349-2,2.349-2.9V5.869a10.243,10.243,0,0,0,1.865.276v9.464A6,6,0,0,1,7.115,15.264Z" transform="translate(0 -0.618)"/>
  <path id="Path_52" data-name="Path 52" d="M202.176,18.172l-.553-.622V9.674l.553-.345-.138-.138-.553.276c-.276-.207-1.036-.9-1.105-.967-.069,0-2.28,1.589-2.28,1.589l.069.207s.345-.207.345-.276l.138.069q.414.414.414.622v7.323l-.553.345.138.138.484-.345,1.174,1.243,2.349-1.313-.207-.276C202.521,17.964,202.176,18.172,202.176,18.172Z" transform="translate(-61.248 -2.628)"/>
  <path id="Path_53" data-name="Path 53" d="M200.713,5.418h0l1.52-1.105L200.92,3,199.4,4.174h0Z" transform="translate(-61.65 -0.928)"/>
  <path id="Path_54" data-name="Path 54" d="M239.818,12.185a1.521,1.521,0,0,1,.553.069q.207.1.207.207v2.418a1.984,1.984,0,0,1-.138.829,5.158,5.158,0,0,0,2.211-1.934,9.291,9.291,0,0,0,.276-3.661A15.388,15.388,0,0,1,243.341,5a9.14,9.14,0,0,0-1.52,1.243,4.1,4.1,0,0,0-.967,1.313,7.361,7.361,0,0,0-.276,2.487c-2.694.276-3.178,1.52-3.178,2.556a2.992,2.992,0,0,1,.069.345v.138A3.123,3.123,0,0,1,239.818,12.185Z" transform="translate(-73.398 -1.546)"/>
  <path id="Path_55" data-name="Path 55" d="M236.982,3.58a9.069,9.069,0,0,1,1.589.345,11.573,11.573,0,0,0,1.382.276h.553a7.345,7.345,0,0,0,3.247-1.934l.276-.207a3.255,3.255,0,0,1-1.174.276,7.161,7.161,0,0,1-2.142-.484,8.109,8.109,0,0,0-2.418-.553A2.418,2.418,0,0,0,235.6,3.787a1.861,1.861,0,0,0,.345,1.036.876.876,0,0,1-.069-.414C235.876,3.925,236.291,3.58,236.982,3.58Z" transform="translate(-72.842 -0.402)"/>
  <path id="Path_56" data-name="Path 56" d="M249.025,1.313a1.944,1.944,0,0,1,.553-.069c.622.069,1.451.967,2,1.658.345-.207,1.382-.967,2.211-1.589A2.227,2.227,0,0,0,252.687.276,2.91,2.91,0,0,0,251.443,0a5.3,5.3,0,0,0-2.9,1.174,3.968,3.968,0,0,0-1.934,3.178c0,.069-.069.829-.069.9v7.737a1.984,1.984,0,0,1-.138.829,5.158,5.158,0,0,0,2.211-1.934,10.493,10.493,0,0,0,.345-3.661V7.53L250.614,8.7v6.01a5.33,5.33,0,0,1-.9,2.971,11.047,11.047,0,0,1-2.487,2.694,3.725,3.725,0,0,1,2.211.207,3.041,3.041,0,0,0,.691.138,3.5,3.5,0,0,0,2.971-2,7.759,7.759,0,0,1-3.661-.069c2.418-1.589,3.592-3.454,3.592-5.181V7.392l-1.865-1.865-2.349,1.451V1.52A.516.516,0,0,1,249.025,1.313Z" transform="translate(-76.181 0)"/>
  <path id="Path_57" data-name="Path 57" d="M29.554,7.108l.553-.345-.138-.138-.553.345-1.382-.9L25.478,7.8V3.171c0-.76-.069-2.142.484-2.763A1.114,1.114,0,0,0,25.34.2a1.434,1.434,0,0,0-1.313,1.036,1.8,1.8,0,0,0-.76-.207.9.9,0,0,0-.967.76,2.925,2.925,0,0,1,.484.345c.207.207.207,1.036.276,1.589V15.191l-.691.553L24.3,16.987l1.934-1.243a6.041,6.041,0,0,0-.691-.553V8.214l.622-.414.967,1.036v6.7c0,.691,1.036,1.52,1.036,1.52a5.146,5.146,0,0,0-1.451,2.487,1.1,1.1,0,0,0,1.105,1.174,2.017,2.017,0,0,0,.622-.138,1.173,1.173,0,0,0,.414-.414V20.1c-.138,0-.207.069-.345.069h-.276a1.347,1.347,0,0,1-.9-.345A.508.508,0,0,1,27.2,19.4a2.229,2.229,0,0,1,.414-1.243,3.955,3.955,0,0,1,1.036-1.105c.345-.276,1.52-1.036,1.658-1.174v-.069a1.971,1.971,0,0,1-.622-1.313V7.108Z" transform="translate(-6.895 -0.062)"/>
  <path id="Path_58" data-name="Path 58" d="M293.061,15.544l-.484-.484V1.727a2.654,2.654,0,0,1,.484-1.52A1.114,1.114,0,0,0,292.44,0c-.76,0-1.036.553-1.382.829a1.366,1.366,0,0,0-.691-.138.9.9,0,0,0-.967.76,2.927,2.927,0,0,1,.484.345c.207.207.207,1.036.276,1.589V15.129l-.622.553,1.865,1.243,2.349-1.52-.069-.138Z" transform="translate(-89.476 0)"/>
  <path id="Path_59" data-name="Path 59" d="M91.092,7.7l-.553.345L84.253,2.1V5.278c.484.484,1.589,1.52,2.072,1.934a5.746,5.746,0,0,1-2.142,1.105,1.687,1.687,0,0,1,.069.484v7.046l-.553.345.138.138.484-.345,2.072,1.52a11.42,11.42,0,0,1,4.145-1.8V8.179l.622-.414ZM86.74,15.018V7.972l.207-.138L88.19,9.008v7.046Z" transform="translate(-25.878 -0.649)"/>
  <path id="Path_60" data-name="Path 60" d="M125.112,9.153l-.138-.138-.622.414c-.276-.207-1.105-.76-1.105-.76l-1.934,1.243.691.553v7.461c0,.691-.553,1.105-1.313,1.105h-.345V9.705L118.687,8.6l-2.142,1.382.138.207a3,3,0,0,1,.484-.276,2.357,2.357,0,0,1,.76,1.382V19.17a2.369,2.369,0,0,0-1.727,2.487,1.915,1.915,0,0,0,1.8,1.8,18.914,18.914,0,0,0,2.418-.138,9.47,9.47,0,0,1,1.451-.138,1.9,1.9,0,0,1,1.451.553l.207.207h0a1.958,1.958,0,0,0,.414-1.105,1.674,1.674,0,0,0-.9-1.589,3.325,3.325,0,0,0-1.52-.276,1.823,1.823,0,0,0-.484.069c-.276.069-.691.069-1.105.138a14.247,14.247,0,0,1-1.451.138,2.451,2.451,0,0,0-.484.069.8.8,0,0,1-.691-.276.918.918,0,0,1-.207-.484c.069-.691.9-.967,1.105-.967h.345a19.172,19.172,0,0,0,2.763.276,2.441,2.441,0,0,0,1.174-.276,3.189,3.189,0,0,0,1.036-.622,2.608,2.608,0,0,0,.691-.829,2.027,2.027,0,0,0,.276-1.105V9.636Z" transform="translate(-35.926 -2.659)"/>
  <path id="Path_61" data-name="Path 61" d="M171.392,9.536l-.553.345L169.319,8.5a18.172,18.172,0,0,1-4.836,2,1.687,1.687,0,0,1,.069.484v6.977L164,18.31l.138.138.553-.345,2.072,1.52a11.42,11.42,0,0,1,4.145-1.8V10.02l.553-.345Zm-2.9,8.566-1.451-1.036V10.158l.207-.069,1.313,1.451V18.1Z" transform="translate(-50.705 -2.628)"/>
  <path id="Path_62" data-name="Path 62" d="M283.968,18.064,283.9,18c-.138-.207-.276-.414-.207-.622V9.913l.622-.414-.138-.138-.553.345c-.276-.276-1.174-1.105-1.174-1.105l-1.934,1.52-1.451-1.382-1.865,1.52,1.313,1.451a2.014,2.014,0,0,0-.138,2.211,2.046,2.046,0,0,0,.207.276l-.207.069a3.18,3.18,0,0,0-2.072,2.694,3.284,3.284,0,0,0,1.52,2.763L281.2,17.65v.276a3.466,3.466,0,0,0,.967,1.865l1.865-1.313h0l.691-.414-.069-.138Zm-3.385-7.53.553.553V14.61a2.836,2.836,0,0,1-1.934-.484C277.751,12.883,278.994,11.225,280.583,10.534ZM279.547,18a2.127,2.127,0,0,1-1.036-1.036,3.4,3.4,0,0,1-.345-1.382,1.5,1.5,0,0,1,.207-.76l.276-.276a.308.308,0,0,1,.345,0,3.68,3.68,0,0,0,2.142.553v1.934Z" transform="translate(-85.425 -2.659)"/>
  <path id="Path_63" data-name="Path 63" d="M193.414,18.233l-.345-.276V9.736l.553-.345-.138-.138-.553.345-1.313-.9-2.556,1.727-.069-.138a2.986,2.986,0,0,0-1.105-1.451h0L185.4,10.5l.069.138a1.988,1.988,0,0,0,.415-.276,2.824,2.824,0,0,1,.691,1.243v6.217l-.691.553,1.934,1.243,1.934-1.243-.691-.553V10.911l.622-.414.9,1.036v6.425a2.333,2.333,0,0,0,1.036,1.658l2.28-1.52-.138-.138Z" transform="translate(-57.321 -2.69)"/>
  <path id="Path_64" data-name="Path 64" d="M213.328,17.957l-.414.276-.345-.276V9.736l.553-.345-.138-.138-.553.345-1.313-.9-2.556,1.727-.069-.138a2.986,2.986,0,0,0-1.105-1.451h0L204.9,10.5l.069.138a1.988,1.988,0,0,0,.415-.276,2.824,2.824,0,0,1,.691,1.243v6.217l-.691.553,1.934,1.243,1.934-1.243-.691-.553V10.911l.622-.414.9,1.036v6.425a2.333,2.333,0,0,0,1.036,1.658l2.28-1.52Z" transform="translate(-63.35 -2.69)"/>
  <path id="Path_65" data-name="Path 65" d="M112.19,18.441s-1.313-.967-1.382-.967v-3.04l3.385-2.211L112.259,8.7l-4.007,2.625v6.7l-.553.345.138.138.553-.345c.76.553,2.349,1.451,2.349,1.451l2.28-1.451-.138-.138Zm-1.382-8.221,1.589,2.694-1.589,1.036Z" transform="translate(-33.298 -2.69)"/>
  <path id="Path_66" data-name="Path 66" d="M263.694,12.223,261.759,8.7l-4.007,2.625v6.7l-.553.345.138.138.553-.345c.76.553,2.349,1.451,2.349,1.451l2.28-1.451-.138-.138-.691.414s-1.313-.967-1.382-.967v-3.04Zm-3.385,1.8v-3.73l1.589,2.694Z" transform="translate(-79.52 -2.69)"/>
  <path id="Path_67" data-name="Path 67" d="M271.743,13.2h0c-.138-.138-.276-.276-.276-.414a1.672,1.672,0,0,1,.414-.9A13.845,13.845,0,0,1,273.47,10.5L272.3,8.845s-1.727,1.174-2,1.313A3.9,3.9,0,0,0,269.049,8.5c-.276.207-2.349,1.52-2.349,1.52l.069.138a1.509,1.509,0,0,1,.345-.207l.138.138q.415.414.415.622v6.632l-.691.553,1.934,1.52s2.072-1.451,2-1.451h0l.415-.276-.138-.138-.484.345-.622-.484V10.78l.414-.276.967,1.243a.994.994,0,0,1-.138.207,1.792,1.792,0,0,0-.414.967c0,.138.207.553.484.553h.069c.207,0,.276-.069.414-.069h0C271.95,13.336,271.812,13.267,271.743,13.2Z" transform="translate(-82.457 -2.628)"/>
  <path id="Path_68" data-name="Path 68" d="M224.035,16.79V10.227l.622-.414-.138-.138-.553.345c-.276-.276-1.243-1.105-1.658-1.52a28.929,28.929,0,0,1-5.25,2.142,2.755,2.755,0,0,1,.207.276v4.145a6.459,6.459,0,0,0,.276,2.28,3.509,3.509,0,0,0,1.52,1.934l.207.138L215.4,22.662l.069.414a1.167,1.167,0,0,0,.345-.138,3.246,3.246,0,0,1,1.52-.345,5.654,5.654,0,0,1,2.694,1.036.994.994,0,0,0,.207.138,13.2,13.2,0,0,0,2.694-2,10.563,10.563,0,0,0,1.52-1.589,2.843,2.843,0,0,0,.691-1.243,2.349,2.349,0,0,0-.484-1.036A1.629,1.629,0,0,1,224.035,16.79Zm-4.076-6.632,1.658,1.52v5.734l-.553.414H221a2.677,2.677,0,0,1-1.382-1.865V10.3Zm2.28,11.813-.276-.207a5.072,5.072,0,0,0-2.349-.829h-.207a3.8,3.8,0,0,0-1.105.207l-.138-.276s3.04-2.556,3.316-2.763a4.866,4.866,0,0,1,1.105,1.313,2.546,2.546,0,0,1,.345,1.174A2.022,2.022,0,0,1,222.239,21.971Z" transform="translate(-66.597 -2.628)"/>
  <path id="Path_69" data-name="Path 69" d="M242.635,20.4a5.109,5.109,0,0,0-4.836,4.974c0,.967.345,2.487,1.8,2.487.622,0,1.036-.276,1.036-1.105a.831.831,0,0,0-.138-.553c-.069.276-.553.9-1.036.9-1.036,0-1.313-.9-1.313-1.589a3.128,3.128,0,0,1,2.9-3.247,3.813,3.813,0,0,1,2.971,1.52l2.142-1.589C244.984,20.742,244.224,20.328,242.635,20.4Z" transform="translate(-73.521 -6.304)"/>
  <path id="Path_70" data-name="Path 70" d="M143.288,21.027a4.936,4.936,0,0,1-1.451-.138l-1.036-.207h-.484a2.455,2.455,0,0,0-2.418,2.625c0,1.727.829,3.661,3.04,3.592.691,0,2.142-.414,2.142-1.727,0-.069-.138-.829-.553-.829h-.276a4.248,4.248,0,0,1,.207.76c0,.9-1.243,1.382-1.727,1.382a2.17,2.17,0,0,1-2.349-2.211c0-.829.414-1.658,1.382-1.658.829,0,1.865.553,2.694.484,1.865,0,2.28-1.243,2.28-3.8C144.67,19.645,144.048,21.027,143.288,21.027Z" transform="translate(-42.635 -5.967)"/>
  <path id="Path_71" data-name="Path 71" d="M139.915,5.352h0a1.438,1.438,0,0,1-.484-.9,1.413,1.413,0,0,1,1.52-1.313c.207,0,.691.138,1.382.276a5.785,5.785,0,0,0,.691.138A4.9,4.9,0,0,0,145.857,1.9l.069-.069h0a4.238,4.238,0,0,1-1.727-.414A4.9,4.9,0,0,0,142.4,1c-1.589,0-3.316,1.174-3.316,2.763A1.746,1.746,0,0,0,139.915,5.352Z" transform="translate(-42.993 -0.309)"/>
  <path id="Path_72" data-name="Path 72" d="M155.927,15.515c-.069,0-.138-.069-.276-.069a1.589,1.589,0,0,1-.691-1.382V4.116a2.618,2.618,0,0,1,.345-1.174h0c-.276-.207-.553-.414-.9-.691-.553-.484-1.382-1.105-1.8-1.451,0,0-2.28,1.865-2.418,1.934l-1.036-.829c-.415-.345-1.036-.9-1.243-1.036-.345.207-5.043,4.214-5.043,4.214V8.4h-.138A2.909,2.909,0,0,0,139.9,11.37a3.5,3.5,0,0,0,.138.622v0a2.031,2.031,0,0,1,.691-.829,2.726,2.726,0,0,1,1.036-.414c.829-.138.9-.069.967,0l.069.069v3.592a1.486,1.486,0,0,1-.138.691,6.017,6.017,0,0,0,2.28-2c.345-.76.345-.76.345-2.349v-.207H147.5v4.145l-.76.76,2.556,1.727,2.418-1.8-.345-.207a.241.241,0,0,1-.138.069.254.254,0,0,1-.207.069,2.069,2.069,0,0,1-1.036-.829V10.4h2.349v3.869a3.587,3.587,0,0,0,.276,1.451,5.111,5.111,0,0,0,1.382,1.382c.276-.138,2.418-1.727,2.418-1.727l-.276-.138C156.273,15.307,156,15.515,155.927,15.515Zm-8.359-7.254h-2.211V3.771l.9-.76S147.5,4.047,147.5,4.116V8.261Zm4.9,0h-2.418V3.7l.9-.691,1.589,1.451v3.8Z" transform="translate(-43.254 -0.247)"/>
</svg>
